<svg xmlns="http://www.w3.org/2000/svg" viewBox="0 0 447.68 125.41">
  <defs>
    <style>
      .cls-1 {
        fill: #fff;
      }

      .cls-2 {
        fill: #00ffd8;
      }

      .cls-3 {
        fill: #00ff0f;
      }

      .cls-4 {
        fill: none;
      }
    </style>
  </defs>
  <g id="Layer_10" data-name="Layer 10">
    <g>
      <path class="cls-1" d="M405.53,83.09a3.08,3.08,0,0,1,.83,1.4,4.94,4.94,0,0,1,.14,1.59,7.38,7.38,0,0,1-.31,1.65c-.17.56-.36,1.06-.54,1.52a19.46,19.46,0,0,1-2.06,3.24,18.86,18.86,0,0,1-1.48,1.86c-.53.59-1.06,1.15-1.6,1.68A43.55,43.55,0,0,1,397,99.36c-1.22,1-2.45,2.06-3.71,3l-3.59,2.91c-.3.23-.62.47-1,.71s-.66.51-1,.77c1.18-.11,2.38-.17,3.6-.17q1.37-.06,2.7,0c.9,0,1.8.07,2.71.14l2.25.25a8.84,8.84,0,0,1,2.2.58,2.39,2.39,0,0,1,.54.3.69.69,0,0,1,.25.58q-.1.52-.54.57a2,2,0,0,1-.82,0,1.51,1.51,0,0,1-.37-.2,1,1,0,0,1-.32-.37h-.34l-.23-.12h-.17l-.57-.11-2.22-.17c-.8-.08-1.62-.12-2.45-.12s-1.68,0-2.51.06a29.45,29.45,0,0,0-3.14.17.61.61,0,0,0-.28.06h-.29a7.13,7.13,0,0,0-1.54.17h-.34a1.61,1.61,0,0,1-.51.11l-.8.12-.88.57a7.86,7.86,0,0,1-.89.51c-.41.19-.87.37-1.36.54a2.1,2.1,0,0,1-1.48,0,1.45,1.45,0,0,1-1.09-1.08.73.73,0,0,1,.23-.74,2.41,2.41,0,0,1,.94-.55q.54-.17,1.05-.27a13.23,13.23,0,0,1,1.4-.25l1.46-.19.39-.06a19.78,19.78,0,0,0,2-1.39l2-1.51,3.59-2.85c1.22-1,2.42-2,3.6-3S397.87,96.08,399,95a37.22,37.22,0,0,0,3.07-3.54c.19-.3.39-.6.6-.88s.41-.58.6-.89a.11.11,0,0,1,0-.08.12.12,0,0,0,0-.09.17.17,0,0,1,.06-.11l.17-.29.34-.74c.07-.22.16-.47.25-.74s.18-.53.26-.8.13-.56.17-.77a2.1,2.1,0,0,0,0-.71v-.37a1.1,1.1,0,0,0-.06-.37.5.5,0,0,0-.05-.23.14.14,0,0,1-.06-.11.38.38,0,0,0-.06-.17l-.11-.17c.08.07.09.09.06,0a.14.14,0,0,1-.06-.11L404,83.6h0a.31.31,0,0,0-.17-.11c-.08-.08-.13-.12-.17-.12l-.11-.11h-.17a.33.33,0,0,0-.23-.06c.07,0,.11,0,.11,0s0,0-.06,0h-.11l-.17,0c-.08,0-.06,0,.06,0h-.29a.87.87,0,0,1-.31,0,.7.7,0,0,0-.32.06h-.17a.58.58,0,0,1-.28.06l-.52.17a7.76,7.76,0,0,0-2,.88,19.89,19.89,0,0,0-2,1.46,16.48,16.48,0,0,0-2.77,2.87,7.89,7.89,0,0,0-1.56,3.68s-.06.11-.17.23a.84.84,0,0,1-.86.11,1.16,1.16,0,0,1-.68-.45s0,0-.09-.09a.4.4,0,0,1-.08-.2.59.59,0,0,1,.05-.28v-.29l.17-.57a3.84,3.84,0,0,0,.2-.6c.06-.21.13-.41.2-.6a13.28,13.28,0,0,1,2.43-3.44,17,17,0,0,1,3.33-2.71,14.86,14.86,0,0,1,2-1,8.9,8.9,0,0,1,2.2-.6,6.2,6.2,0,0,1,2.19.12A4,4,0,0,1,405.53,83.09Zm-1.82.26s0,0,.11.08A.59.59,0,0,0,403.71,83.35Z" transform="translate(0 -0.39)"/>
      <path class="cls-1" d="M410.34,105.66a1.94,1.94,0,0,1,1.08.36q.72.72.36,1.26a3.91,3.91,0,0,1-.58.63c-.21.18-.41.36-.59.54a1.61,1.61,0,0,1-.81.27,2.08,2.08,0,0,1-1.17-.18A2,2,0,0,1,408,108a.63.63,0,0,1,0-.86l1.35-1.35A1.14,1.14,0,0,1,410.34,105.66Z" transform="translate(0 -0.39)"/>
      <path class="cls-1" d="M429.58,81.21a.78.78,0,0,1,.6-.12,1.61,1.61,0,0,1,.66.26,1.14,1.14,0,0,1,.4.48c.07.2,0,.37-.23.52a2.7,2.7,0,0,0-.34.25c-.12.1-.23.2-.35.32a22.81,22.81,0,0,0-3.44,3.65,48.25,48.25,0,0,0-2.83,4.16,50.82,50.82,0,0,0-2.42,4.5,28.47,28.47,0,0,0-1.79,4.85,19.94,19.94,0,0,0-.69,2.9,5.38,5.38,0,0,1-.11.86,3,3,0,0,1-.06.62v1.6a1.65,1.65,0,0,1,.06.43,1.15,1.15,0,0,0,.06.37.51.51,0,0,1,0,.17.43.43,0,0,0,.06.17.2.2,0,0,0,0,.11l0,0a.11.11,0,0,0,0,.08.12.12,0,0,1,0,.09,3.24,3.24,0,0,0,.28.68s.06.07.06.09,0,0,.06.08,0,.08,0,0-.05-.07,0,0a.47.47,0,0,0,.08.15.55.55,0,0,1,.09.14.1.1,0,0,0,.08.05s.05,0,.09.06-.11-.09-.09-.06a.1.1,0,0,0,.09.06,1.17,1.17,0,0,0,.28.23q.12.12,0,0t0,0s.06,0,.06,0,0,0,.06,0a.15.15,0,0,0,.08,0s.05,0,.09.06.11,0,0,0-.12-.06,0,0a.15.15,0,0,0,.11.06.17.17,0,0,1,.12.06l.14,0-.14,0a.54.54,0,0,1,.19,0,.64.64,0,0,0,.2,0h.57a.85.85,0,0,0,.23,0,.91.91,0,0,1,.23,0,.2.2,0,0,0,.11,0l.12,0a2,2,0,0,1,.37-.08,1.48,1.48,0,0,0,.43-.15.16.16,0,0,1,.11,0,.14.14,0,0,0,.11-.06q.18-.06.06,0t.06,0c.15-.08.28-.15.4-.23a2.56,2.56,0,0,1,.37-.2,2.64,2.64,0,0,0,.37-.2,10.78,10.78,0,0,0,1.59-1c.5-.38,1-.78,1.43-1.2a23.43,23.43,0,0,0,2.68-2.79c.8-1,1.56-2,2.28-3.14.91-1.4,1.75-2.84,2.51-4.3a31.08,31.08,0,0,0,1.93-4.59q.34-1.2.6-2.37a18.53,18.53,0,0,0,.37-2.42,4.57,4.57,0,0,0,.12-1,9.16,9.16,0,0,0-.06-1.06,5.28,5.28,0,0,0-.11-.85v-.17q-.06-.18,0-.06t0,0a.42.42,0,0,0-.11-.29.86.86,0,0,0-.12-.34q-.12-.1,0,0t0,0s0-.06,0-.06,0,0,0,0l-.05-.06c-.08-.08-.14-.12-.17-.12l.11.06a.62.62,0,0,1-.17-.11l.2.08a.6.6,0,0,0-.2,0c-.08,0-.06,0,.06,0s.13,0,.05,0h-.11c-.15,0-.17,0-.06,0s.12,0,0,0h-.28a.27.27,0,0,0-.12,0s0,0,.17,0h-.11l-.57.18a.44.44,0,0,0-.2.08q-.13.09,0,0l-.14.06-.15.06a.78.78,0,0,1-.28.17.7.7,0,0,0-.29.17l-.59.34a3.91,3.91,0,0,0-.6.4.29.29,0,0,1-.12.14l-.17.14a.15.15,0,0,0-.11.06l.06-.06-.12.12-.51.51A10.19,10.19,0,0,0,432,85.94c-.4.49-.81,1-1.23,1.48a40.47,40.47,0,0,0-2.45,3.45,29.85,29.85,0,0,0-2,3.68,10.8,10.8,0,0,0-.52,1.08,4.32,4.32,0,0,0-.28,1.14l0-.09a.49.49,0,0,0,0,.15.24.24,0,0,0,.06.17q0,.1-.06,0t.06,0s0,.06,0,.06,0,0-.09-.12v0s0-.06-.11-.14c.07.08.05.08-.06,0s-.14-.09-.06-.09l-.14,0h-.2q.12-.06,0,0t0,0a.43.43,0,0,1,.17-.06.43.43,0,0,0,.17-.06.43.43,0,0,1-.17.06.14.14,0,0,0-.11.06l0-.06a1.08,1.08,0,0,1,1,.17.76.76,0,0,1,.26.34c.05.15,0,.27-.2.34s-.06,0-.06,0,0,0,.06-.08l-.12.11-.05.06a.33.33,0,0,0-.23.11.6.6,0,0,0-.2,0,.64.64,0,0,1-.2,0,1.62,1.62,0,0,1-1.08-.34,1,1,0,0,1-.46-.72,2.21,2.21,0,0,1,.06-.88,8.77,8.77,0,0,1,.91-2.56,30.19,30.19,0,0,1,2.05-3.6c.42-.64.86-1.29,1.34-1.93s1-1.29,1.45-1.94l1.14-1.28a14,14,0,0,1,1.2-1.23,17.85,17.85,0,0,1,2.42-1.74,4.58,4.58,0,0,1,2.77-.65,3,3,0,0,1,2.51,1.48,3.8,3.8,0,0,1,.54,1.62,11.93,11.93,0,0,1,0,1.68,21.45,21.45,0,0,1-.8,4.88,36.48,36.48,0,0,1-1.71,4.64,35.65,35.65,0,0,1-2.37,4.39q-1.33,2.11-2.88,4.11a28,28,0,0,1-2.42,2.67,18.33,18.33,0,0,1-2.76,2.23,14.82,14.82,0,0,1-3.4,1.71,5.32,5.32,0,0,1-3.73,0,6.15,6.15,0,0,1-1.48-.91,4,4,0,0,1-1.08-1.43,6.79,6.79,0,0,1-.52-3.13,20.77,20.77,0,0,1,.4-3.37,30.64,30.64,0,0,1,.86-3.3,36.34,36.34,0,0,1,2.05-4.85,47.6,47.6,0,0,1,2.62-4.5,50.25,50.25,0,0,1,3-4.11A19,19,0,0,1,429.58,81.21Z" transform="translate(0 -0.39)"/>
    </g>
    <path class="cls-1" d="M446.69,116.72a5,5,0,0,1,.68.35.51.51,0,0,1,.29.62,1,1,0,0,1-.6.66,1.17,1.17,0,0,1-.94-.14.62.62,0,0,1-.17-.12l-.17-.17c-1.33-.11-2.68-.18-4-.2s-2.74,0-4.1,0c-1.87,0-3.71.09-5.53.17l-5.53.23q-7.69.28-15.31.85t-15.36,1.09l-11.11.91q-5.54.45-11.12,1.2c-1.63.19-3.22.39-4.76.62s-3.1.51-4.7.86c-1,.23-2,.51-3.08.85a.15.15,0,0,1-.11.06l-.06.06-.23.11-.34.17s-.06,0-.06,0,0,0-.05,0l-.12.11a1.34,1.34,0,0,0-.2.29.63.63,0,0,1-.37.28,1,1,0,0,1-.68.12,1.4,1.4,0,0,1-.68-.29.82.82,0,0,1-.32-.48c-.06-.21,0-.37.26-.49a.05.05,0,0,0,.06-.06l0,0,.17-.23a1,1,0,0,1,.4-.28.84.84,0,0,1,.32-.2c.13-.06.25-.13.37-.2a8.51,8.51,0,0,1,1.19-.46l1.2-.34c1.22-.31,2.45-.57,3.71-.8s2.5-.44,3.76-.63q5.64-.8,11.26-1.31T392,119q7.18-.57,14.31-1.08t14.3-.91c2.47-.12,4.91-.22,7.33-.32s4.83-.18,7.27-.25c1,0,2-.06,3-.06h3q1.14.06,2.31.09c.78,0,1.55.06,2.31.14h.05A1.77,1.77,0,0,1,446.69,116.72Zm-85.56,7.87c-.07,0-.11,0-.11,0Z" transform="translate(0 -0.39)"/>
  </g>
  <g id="X">
    <path class="cls-2" d="M417.92,5.91A3.64,3.64,0,0,0,414.76.39H392.6c-1.05,0-2.19,1.36-2.19,1.36L367.56,34s-7.94-11.21-8.9-12.44a2.54,2.54,0,0,0-2.15-1.09H332.25c-3.33,0-2,4.05-2,4.05l22.06,30.77s-32.59,45.94-34.95,49.09.86,5.8,2.71,5.8l21,0a5,5,0,0,0,4.37-2.37l22.17-31.33s7.33,10.24,8.51,12A3.14,3.14,0,0,0,378.59,90h2.66a19.78,19.78,0,0,1,.83-2.39h-3.7L367.47,72.46,342.18,107.8H320s-1.8-.39-.62-2.07,35.87-50.41,35.87-50.41L332.16,22.86h24.41l11,15.31,25-35.31H415s1.91.59.33,2.66-35.77,49.8-35.77,49.8l15.34,21.4c1,0,1.76,0,2.74,0l-15-21.47Z" transform="translate(0 -0.39)"/>
  </g>
  <g id="U">
    <path class="cls-2" d="M322,.5H304.06c-2.68,0-3.34,3.34-3.34,3.34s0,67.24,0,69.91-2.13,12.33-17.07,12.33-17.07-12.72-17.07-12.72V21.81c0-2-2.37-2.36-2.37-2.36H244.28c-1.66,0-2.38,2.38-2.38,2.38v52.6c0,9,7.09,35.78,41.75,35.78,18.9,0,41.61-10,41.61-37.16,0,0,.09-67.61.09-69.22C325.35,1.19,322,.5,322,.5Zm1,75.31c-1.93,25.1-25.07,32-37.93,32-36.13,0-40.75-26.73-40.75-33.17V21.83h19.9V73.36s1.4,14.93,19.24,14.93,19.67-12.55,19.67-14.48v-70a1,1,0,0,1,1-1H322a.94.94,0,0,1,1,1Z" transform="translate(0 -0.39)"/>
  </g>
  <g id="L">
    <path class="cls-3" d="M232.31,75.13h14.87v-48a.5.5,0,0,0-.52-.51H232.83a.52.52,0,0,0-.51.51C232.32,27.65,232.31,75.13,232.31,75.13Z" transform="translate(0 -0.39)"/>
    <path class="cls-3" d="M232.31,90h42.33s.61.13.61.62v13.18a.6.6,0,0,1-.59.59H233s-.76-.26-.76-.76S232.31,90,232.31,90Z" transform="translate(0 -0.39)"/>
  </g>
  <g id="O">
    <path class="cls-3" d="M191,26.63c-20.65,0-37.38,14.4-37.38,38.9,0,24.73,16.73,38.91,37.38,38.91,22.5,0,37.38-17.42,37.38-38.91S214.57,26.63,191,26.63Zm0,64.1c-12.57,0-22.76-9.18-22.76-25.2S178.45,40.34,191,40.34c14.34,0,22.76,11.28,22.76,25.19S204.72,90.73,191,90.73Z" transform="translate(0 -0.39)"/>
    <circle class="cls-3" cx="190.91" cy="65.26" r="7.27"/>
  </g>
  <g id="V">
    <path class="cls-3" d="M113.89,26.65H100s-1.08,0-.69,1.14,29,75.38,29,75.38,1.51,2.66,2.53,0,24-62.14,24-62.14H139.74L129.66,69.34l-15-42.19A.77.77,0,0,0,113.89,26.65Z" transform="translate(0 -0.39)"/>
  </g>
  <g id="E">
    <path class="cls-3" d="M93.58,26.69l-36.41,0a.47.47,0,0,0-.51.48c0,.53,0,76.75,0,76.75s.11.51.5.52H93.58V90H71.51V72.48h30.77s.74,0,.74-.66V59.1a.81.81,0,0,0-.85-.79H71.47V40.77H93.61Z" transform="translate(0 -0.39)"/>
    <path class="cls-4" d="M332.16,22.86" transform="translate(0 -0.39)"/>
  </g>
  <g id="R">
    <path class="cls-3" d="M0,40.82V27.15a.45.45,0,0,1,.48-.5H30s18.88.89,21.73,16.9c4,22.73-13.53,27.22-13.53,27.22l15,32.5s.17,1.08-.53,1.08H38.12a.91.91,0,0,1-.92-.45C36.87,103.34,22.92,73,22.92,73l-8,0s-.26.07-.27.27,0,30.43,0,30.43,0,.73-.7.73H.5a.44.44,0,0,1-.5-.46V58.84l28.21,0s9.58.23,9.3-9.45C37.3,42,29,40.79,29,40.79Z" transform="translate(0 -0.39)"/>
  </g>
</svg>
